# AST/ASF file generated using VICON BodyLanguage
# -----------------------------------------------
:version 1.10
:name VICON
:units
  mass 1.0
  length 0.45
  angle deg
:documentation
   .ast/.asf automatically generated from VICON data using
   VICON BodyBuilder and BodyLanguage model FoxedUp or BRILLIANT.MOD
:root
   order TX TY TZ RX RY RZ
   axis XYZ
   position 0 0 0  
   orientation 0 0 0 
:bonedata
  begin
     id 1 
     name lhipjoint
     direction 0.575328 -0.747301 0.332475 
     length 2.40933 
     axis 0 0 0  XYZ
  end
  begin
     id 2 
     name lfemur
     direction 0.34202 -0.939693 0  
     length 7.31453  
     axis 0 0 20  XYZ
    dof rx ry rz
    limits (-160.0 20.0)
           (-70.0 70.0)
           (-60.0 70.0)
  end
  begin
     id 3 
     name ltibia
     direction 0.34202 -0.939693 0   
     length 7.82185   
     axis 0 0 20   XYZ
    dof rx
    limits (-10.0 170.0)
  end
  begin
     id 4 
     name lfoot
     direction 0.0795993 -0.218697 0.972541   
     length 2.19173   
     axis -90 7.62852e-016 20   XYZ
    dof rx rz
    limits (-45.0 90.0)
           (-70.0 20.0)
  end
  begin
     id 5 
     name ltoes
     direction 1.53537e-011 -4.21894e-011 1   
     length 1.10023   
     axis -90 7.62852e-016 20   XYZ
    dof rx
    limits (-90.0 20.0)
  end
  begin
     id 6 
     name rhipjoint
     direction -0.513884 -0.783789 0.348708   
     length 2.29716  
     axis 0 0 0  XYZ 
  end
  begin
     id 7 
     name rfemur
     direction -0.34202 -0.939693 0   
     length 7.59573   
     axis 0 0 -20   XYZ
    dof rx ry rz
    limits (-160.0 20.0)
           (-70.0 70.0)
           (-70.0 60.0)
  end
  begin
     id 8 
     name rtibia
     direction -0.34202 -0.939693 0   
     length 7.66402   
     axis 0 0 -20   XYZ
    dof rx
    limits (-10.0 170.0)
 end
 begin
     id 9 
     name rfoot
     direction -0.137793 -0.378584 0.915253   
     length 2.27056  
     axis -90 -7.62852e-016 -20   XYZ
    dof rx rz
    limits (-45.0 90.0)
           (-20.0 70.0)
  end
  begin
     id 10 
     name rtoes
     direction -1.53493e-011 -4.22159e-011 1   
     length 1.11766   
     axis -90 -7.62852e-016 -20   XYZ
    dof rx
    limits (-90.0 20.0)
  end
  begin
     id 11 
     name lowerback
     direction -0.00732775 0.998356 -0.05685   
     length 2.16513   
     axis 0 0 0   XYZ
    dof rx ry rz
    limits (-20.0 45.0)
           (-30.0 30.0)
           (-30.0 30.0)
  end
  begin
     id 12 
     name upperback
     direction 0.0218081 0.999627 -0.0164647   
     length 2.16755   
     axis 0 0 0   XYZ
    dof rx ry rz
    limits (-20.0 45.0)
           (-30.0 30.0)
           (-30.0 30.0)
  end
  begin
     id 13 
     name thorax
     direction 0.02365 0.999661 0.0108914   
     length 2.16932   
     axis 0 0 0   XYZ
    dof rx ry rz
    limits (-20.0 45.0)
           (-30.0 30.0)
           (-30.0 30.0)
  end
  begin
     id 14 
     name lowerneck
     direction -0.0523929 0.978385 0.200044   
     length 1.63877   
     axis 0 0 0   XYZ
    dof rx ry rz
    limits (-20.0 45.0)
           (-30.0 30.0)
           (-30.0 30.0)
  end
  begin
     id 15 
     name upperneck
     direction 0.0448674 0.981321 -0.187074   
     length 1.69014   
     axis 0 0 0   XYZ
    dof rx ry rz
    limits (-20.0 45.0)
           (-30.0 30.0)
           (-30.0 30.0)
  end
  begin
     id 16
     name head
     direction 0.0199089 0.996118 -0.0857429  
     length 1.70094  
     axis 0 0 0   XYZ
    dof rx ry rz
    limits (-20.0 45.0)
           (-30.0 30.0)
           (-30.0 30.0)
  end
  begin
     id 17 
     name lclavicle
     direction 0.940366 0.30191 -0.156722  
     length 3.37521  
     axis 0 0 0   XYZ
    dof ry rz
    limits (-20.0 10.0)
           (0.0 20.0)
  end
  begin
     id 18 
     name lhumerus
     direction 1 -4.4897e-011 -1.7911e-027   
     length 5.25287   
     axis 180 -30 -90   XYZ
    dof rx ry rz
    limits (-60.0 90.0)
           (-90.0 90.0)
           (-90.0 90.0)
  end
  begin
     id 19
     name lradius
     direction 1 -4.48951e-011 1.04424e-027   
     length 3.51014   
     axis 180 -30 -90   XYZ
    dof rx
    limits (-10.0 170.0)
  end
  begin
     id 20
     name lwrist
     direction 1 -4.48997e-011 -9.5942e-028   
     length 1.75507   
     axis 8.48502e-016 90 90   XYZ
    dof ry
    limits (-180.0 0.0)
 end
  begin
     id 21 
     name lhand
     direction 1 -4.48831e-011 -1.90777e-027   
     length 0.706179   
     axis 1.22306e-015 90 90   XYZ
    dof rx rz
    limits (-90.0 90.0)
           (-45.0 45.0)
  end
  begin
     id 22 
     name lfingers
     direction 1 -4.49108e-011 -3.85244e-027   
     length 0.569339   
     axis 2.44611e-015 90 90   XYZ
    dof rx
    limits (0.0 90.0)
  end
  begin
     id 23
     name lthumb
     direction 0.707107 -6.34953e-011 0.707107   
     length 0.817461   
     axis -90 45 -1.62303e-014   XYZ
    dof rx rz
    limits (-45.0 45.0)
           (-45.0 45.0)
  end
  begin
     id 24 
     name rclavicle
     direction -0.905329 0.382405 -0.184787   
     length 3.30787  
     axis 0 0 0   XYZ 
    dof ry rz
    limits (-10.0 20.0)
           (-20.0 0.0)
  end
  begin
     id 25 
     name rhumerus
     direction -1 -4.48953e-011 -9.15316e-029  
     length 5.28721   
     axis 180 30 90   XYZ
    dof rx ry rz
    limits (-90.0 60.0)
           (-90.0 90.0)
           (-90.0 90.0)
  end
  begin
     id 26 
     name rradius
     direction -1 -4.48987e-011 9.37824e-028   
     length 3.50544   
     axis 180 30 90   XYZ
    dof rx
    limits (-10.0 170.0)
  end
  begin
     id 27 
     name rwrist
     direction -1 -4.48967e-011 -9.58414e-028   
     length 1.75272   
     axis 8.48502e-016 -90 -90   XYZ
    dof ry
    limits (-180.0 0.0)
  end
  begin
     id 28
     name rhand
     direction -1 -4.48904e-011 -1.91266e-027   
     length 0.884996   
     axis 1.22306e-015 -90 -90   XYZ
    dof rx rz
    limits (-90.0 90.0)
           (-45.0 45.0)
  end
  begin
     id 29
     name rfingers
     direction -1 -4.4909e-011 -3.85015e-027   
     length 0.713507   
     axis 2.44611e-015 -90 -90   XYZ
    dof rx
    limits (0.0 90.0)
  end
  begin
     id 30
     name rthumb
     direction -0.707107 -6.34853e-011 0.707107   
     length 1.02446   
     axis -90 -45 1.62303e-014   XYZ
    dof rx rz
    limits (-45.0 45.0)
           (-45.0 45.0)
  end
:hierarchy
  begin
    root lhipjoint rhipjoint lowerback
    lhipjoint lfemur
    lfemur ltibia
    ltibia lfoot
    lfoot ltoes
    rhipjoint rfemur
    rfemur rtibia
    rtibia rfoot
    rfoot rtoes
    lowerback upperback
    upperback thorax
    thorax lowerneck lclavicle rclavicle
    lowerneck upperneck
    upperneck head
    lclavicle lhumerus
    lhumerus lradius
    lradius lwrist
    lwrist lhand lthumb
    lhand lfingers
    rclavicle rhumerus
    rhumerus rradius
    rradius rwrist
    rwrist rhand rthumb
    rhand rfingers
  end

#!OML:ASF F:\twosubjects\two\Thursday\Session 1\justin.ASF
:FULLY-SPECIFIED
:DEGREES
318
root -4.23845 17.8784 11.3104 -169.389 12.714 184.413
lowerback 5.78634 -0.0480177 -0.556142
upperback 4.74006 0.224098 1.84571
thorax 1.62948 0.206783 2.20522
lowerneck -7.97328 -15.4819 -17.4868
upperneck 31.1228 -20.037 9.33086
head 15.0484 -9.22663 3.31673
rclavicle 4.52235e-015 5.96354e-016
rhumerus -6.10538 -55.1169 -51.7951
rradius 33.5015
rwrist -27.3529
rhand 6.54443 -12.7942
rfingers 7.12502
rthumb 31.8419 -40.0318
lclavicle 4.52235e-015 5.96354e-016
lhumerus -33.5846 1.87425 77.995
lradius 40.7734
lwrist -4.03375
lhand -0.734767 32.825
lfingers 7.12502
lthumb 24.8864 61.225
rfemur -28.1769 -7.11091 12.3512
rtibia 40.4736
rfoot -10.1845 -20.0012
rtoes -5.43273
lfemur -18.5689 8.54219 -22.2218
ltibia 32.2389
lfoot -19.4654 3.58556
ltoes -2.03614
319
root -4.30645 17.8636 11.2921 -169.365 12.6067 184.693
lowerback 5.96104 -0.12076 -0.405584
upperback 4.82882 0.14542 1.78339
thorax 1.62754 0.176698 2.05985
lowerneck -8.04548 -15.4971 -17.1266
upperneck 30.7359 -20.0658 9.05466
head 14.7929 -9.25921 3.1376
rclavicle 1.59028e-014 -1.33186e-014
rhumerus -6.09066 -55.2523 -51.6873
rradius 33.4298
rwrist -27.1469
rhand 6.60471 -12.8066
rfingers 7.12502
rthumb 31.8994 -40.0326
lclavicle 1.59028e-014 -1.33186e-014
lhumerus -33.3928 2.13196 77.6906
lradius 40.6041
lwrist -4.04824
lhand -0.811764 33.4197
lfingers 7.12502
lthumb 24.8126 61.8299
rfemur -28.7164 -7.51229 12.8138
rtibia 41.3101
rfoot -9.52343 -20.6735
rtoes -3.84362
lfemur -18.4989 8.29138 -22.1559
ltibia 32.1905
lfoot -19.5206 3.89251
ltoes -2.62996
320
root -4.36888 17.8629 11.2729 -169.287 12.6712 184.906
lowerback 6.06661 -0.186669 -0.520465
upperback 4.84422 0.0552683 1.77443
thorax 1.58882 0.12977 2.11918
lowerneck -7.57493 -15.6872 -17.9508
upperneck 30.4897 -20.6281 10.1581
head 14.9619 -9.49344 3.59489
rclavicle 3.45885e-014 -1.41137e-014
rhumerus -5.86958 -55.5419 -51.6966
rradius 33.2218
rwrist -26.4993
rhand 7.26731 -13.0509
rfingers 7.12502
rthumb 32.5301 -40.1491
lclavicle 3.45885e-014 -1.41137e-014
lhumerus -33.3199 2.61567 77.4092
lradius 40.2846
lwrist -4.10152
lhand -1.17303 33.1073
lfingers 7.12502
lthumb 24.4663 61.5647
rfemur -29.3604 -7.75283 13.24
rtibia 42.1234
rfoot -9.12231 -20.9865
rtoes -2.0108
lfemur -18.503 8.17519 -22.1634
ltibia 32.1395
lfoot -19.5157 4.02946
ltoes -2.3991
321
root -4.42643 17.8745 11.2489 -169.271 12.6579 184.918
lowerback 6.20293 -0.248552 -1.03307
upperback 4.69833 -0.0608438 1.89912
thorax 1.37041 0.0546136 2.54107
lowerneck -7.23956 -15.7348 -17.4882
upperneck 30.2618 -20.3862 8.7981
head 14.4726 -9.53067 3.06194
rclavicle -8.74653e-015 1.63003e-014
rhumerus -6.02666 -55.2607 -51.1685
rradius 32.9999
rwrist -26.0615
rhand 7.83834 -13.2276
rfingers 7.12502
rthumb 33.0733 -40.2123
lclavicle -8.74653e-015 1.63003e-014
lhumerus -33.7219 2.93798 77.4187
lradius 40.1105
lwrist -3.82395
lhand -1.51165 33.1039
lfingers 7.12502
lthumb 24.1417 61.6048
rfemur -29.9365 -7.96069 13.4574
rtibia 42.9179
rfoot -9.20685 -20.8655
rtoes -0.778644
lfemur -18.4582 8.13924 -22.3667
ltibia 32.0949
lfoot -19.5117 3.95251
ltoes -2.16327
322
root -4.48505 17.867 11.2226 -169.35 12.6007 184.683
lowerback 6.31644 -0.215616 -1.6131
upperback 4.6169 -0.0524076 1.89405
thorax 1.22646 0.0436883 2.86203
lowerneck -6.55945 -15.9175 -18.7413
upperneck 30.32 -20.9188 10.0726
head 14.8259 -9.76549 3.66591
rclavicle -1.82882e-014 -1.49089e-014
rhumerus -6.63233 -54.7204 -50.3054
rradius 33.0802
rwrist -26.1944
rhand 7.83791 -13.4395
rfingers 7.12502
rthumb 33.0729 -40.4243
lclavicle -1.82882e-014 -1.49089e-014
lhumerus -34.0518 2.74421 77.5145
lradius 40.2768
lwrist -3.25341
lhand -1.84408 33.1499
lfingers 7.12502
lthumb 23.8229 61.6928
rfemur -30.4393 -8.44627 13.4193
rtibia 43.7122
rfoot -9.38074 -20.0457
rtoes -1.46838
lfemur -18.2972 8.08757 -22.8544
ltibia 32.0132
lfoot -19.6227 3.94283
ltoes -2.05872
323
root -4.54593 17.8606 11.1979 -169.364 12.5768 184.657
lowerback 6.34333 -0.212683 -1.70426
upperback 4.65418 -0.0527291 1.72091
thorax 1.25005 0.0431168 2.73454
lowerneck -6.50357 -16.1274 -18.9564
upperneck 30.3364 -21.3416 10.4297
head 14.9904 -9.93591 3.74182
rclavicle 2.75317e-014 -9.54166e-015
rhumerus -6.91914 -54.7141 -50.0341
rradius 33.1429
rwrist -26.0953
rhand 7.97443 -13.4724
rfingers 7.12502
rthumb 33.2027 -40.4296
lclavicle 2.75317e-014 -9.54166e-015
lhumerus -34.1019 2.8192 77.2103
lradius 40.4775
lwrist -3.17721
lhand -1.95352 33.1035
lfingers 7.12502
lthumb 23.718 61.66
rfemur -31.0288 -8.88379 13.6098
rtibia 44.4547
rfoot -9.7045 -18.7961
rtoes -2.75883
lfemur -18.1501 8.08245 -23.1072
ltibia 31.872
lfoot -19.6293 3.82014
ltoes -1.80534
